<?xml version="1.0" standalone="no"?>
<!DOCTYPE svg PUBLIC "-//W3C//DTD SVG 20010904//EN"
 "http://www.w3.org/TR/2001/REC-SVG-20010904/DTD/svg10.dtd">
<svg version="1.0" xmlns="http://www.w3.org/2000/svg"
 width="352.000000pt" height="352.000000pt" viewBox="0 0 352.000000 352.000000"
 preserveAspectRatio="xMidYMid meet">
<metadata>
Created by potrace 1.14, written by Peter Selinger 2001-2017
</metadata>
<g transform="translate(0.000000,352.000000) scale(0.100000,-0.100000)"
fill="#000000" stroke="none">
<path d="M657 2775 c0 -97 3 -181 6 -188 3 -7 376 -196 830 -422 455 -225 826
-412 827 -416 0 -3 -116 -62 -257 -131 -943 -463 -1391 -685 -1402 -694 -6 -5
-7 -374 -1 -374 7 0 2213 1100 2220 1107 3 3 5 47 6 98 l0 93 -740 367 c-408
202 -908 450 -1111 551 -204 101 -373 184 -375 184 -3 0 -4 -79 -3 -175z"/>
</g>
</svg>
